<svg width="15" height="16" viewBox="0 0 15 16" fill="none" xmlns="http://www.w3.org/2000/svg">
<path d="M0.0833282 1.54169C0.0833282 1.37593 0.149176 1.21696 0.266386 1.09975C0.383597 0.982535 0.542568 0.916687 0.708328 0.916687H1.17333C1.96499 0.916687 2.43999 1.44919 2.71083 1.94419C2.89166 2.27419 3.02249 2.65669 3.12499 3.00335C3.15272 3.00117 3.18052 3.00005 3.20833 3.00002H13.6233C14.315 3.00002 14.815 3.66169 14.625 4.32752L13.1017 9.66835C12.9651 10.1474 12.6761 10.5689 12.2786 10.869C11.881 11.1692 11.3965 11.3316 10.8983 11.3317H5.94166C5.43957 11.3317 4.95137 11.1668 4.5521 10.8624C4.15283 10.558 3.86458 10.1309 3.73166 9.64669L3.09833 7.33669L2.04833 3.79669L2.04749 3.79002C1.91749 3.31752 1.79583 2.87502 1.61416 2.54502C1.43999 2.22419 1.29999 2.16669 1.17416 2.16669H0.708328C0.542568 2.16669 0.383597 2.10084 0.266386 1.98363C0.149176 1.86642 0.0833282 1.70745 0.0833282 1.54169ZM4.31083 7.03335L4.93666 9.31585C5.06166 9.76752 5.47249 10.0817 5.94166 10.0817H10.8983C11.1247 10.0817 11.345 10.0079 11.5257 9.87152C11.7065 9.73514 11.8379 9.54358 11.9 9.32585L13.3475 4.25002H3.48749L4.29916 6.98919L4.31083 7.03335ZM7.16666 13.8334C7.16666 14.2754 6.99107 14.6993 6.67851 15.0119C6.36595 15.3244 5.94202 15.5 5.49999 15.5C5.05797 15.5 4.63404 15.3244 4.32148 15.0119C4.00892 14.6993 3.83333 14.2754 3.83333 13.8334C3.83333 13.3913 4.00892 12.9674 4.32148 12.6548C4.63404 12.3423 5.05797 12.1667 5.49999 12.1667C5.94202 12.1667 6.36595 12.3423 6.67851 12.6548C6.99107 12.9674 7.16666 13.3913 7.16666 13.8334ZM5.91666 13.8334C5.91666 13.7228 5.87276 13.6169 5.79462 13.5387C5.71648 13.4606 5.6105 13.4167 5.49999 13.4167C5.38949 13.4167 5.28351 13.4606 5.20537 13.5387C5.12723 13.6169 5.08333 13.7228 5.08333 13.8334C5.08333 13.9439 5.12723 14.0498 5.20537 14.128C5.28351 14.2061 5.38949 14.25 5.49999 14.25C5.6105 14.25 5.71648 14.2061 5.79462 14.128C5.87276 14.0498 5.91666 13.9439 5.91666 13.8334ZM13 13.8334C13 14.2754 12.8244 14.6993 12.5118 15.0119C12.1993 15.3244 11.7754 15.5 11.3333 15.5C10.8913 15.5 10.4674 15.3244 10.1548 15.0119C9.84226 14.6993 9.66666 14.2754 9.66666 13.8334C9.66666 13.3913 9.84226 12.9674 10.1548 12.6548C10.4674 12.3423 10.8913 12.1667 11.3333 12.1667C11.7754 12.1667 12.1993 12.3423 12.5118 12.6548C12.8244 12.9674 13 13.3913 13 13.8334ZM11.75 13.8334C11.75 13.7228 11.7061 13.6169 11.628 13.5387C11.5498 13.4606 11.4438 13.4167 11.3333 13.4167C11.2228 13.4167 11.1168 13.4606 11.0387 13.5387C10.9606 13.6169 10.9167 13.7228 10.9167 13.8334C10.9167 13.9439 10.9606 14.0498 11.0387 14.128C11.1168 14.2061 11.2228 14.25 11.3333 14.25C11.4438 14.25 11.5498 14.2061 11.628 14.128C11.7061 14.0498 11.75 13.9439 11.75 13.8334Z" fill="#FF971A"/>
</svg>
