<svg width="15" height="16" viewBox="0 0 15 16" fill="none" xmlns="http://www.w3.org/2000/svg">
<path d="M0.0833282 1.54169C0.0833282 1.37593 0.149176 1.21696 0.266386 1.09975C0.383597 0.982535 0.542568 0.916687 0.708328 0.916687H1.17333C1.96499 0.916687 2.43999 1.44919 2.71083 1.94419C2.89166 2.27419 3.02249 2.65669 3.12499 3.00335C3.15272 3.00117 3.18052 3.00005 3.20833 3.00002H13.6233C14.315 3.00002 14.815 3.66169 14.625 4.32752L13.1017 9.66835C12.9651 10.1474 12.6761 10.5689 12.2786 10.869C11.881 11.1692 11.3965 11.3316 10.8983 11.3317H5.94166C5.43957 11.3317 4.95137 11.1668 4.5521 10.8624C4.15283 10.558 3.86458 10.1309 3.73166 9.64669L3.09833 7.33669L2.04833 3.79669L2.04749 3.79002C1.91749 3.31752 1.79583 2.87502 1.61416 2.54502C1.43999 2.22419 1.29999 2.16669 1.17416 2.16669H0.708328C0.542568 2.16669 0.383597 2.10084 0.266386 1.98363C0.149176 1.86642 0.0833282 1.70745 0.0833282 1.54169ZM5.49999 15.5C5.94202 15.5 6.36595 15.3244 6.67851 15.0119C6.99107 14.6993 7.16666 14.2754 7.16666 13.8334C7.16666 13.3913 6.99107 12.9674 6.67851 12.6548C6.36595 12.3423 5.94202 12.1667 5.49999 12.1667C5.05797 12.1667 4.63404 12.3423 4.32148 12.6548C4.00892 12.9674 3.83333 13.3913 3.83333 13.8334C3.83333 14.2754 4.00892 14.6993 4.32148 15.0119C4.63404 15.3244 5.05797 15.5 5.49999 15.5ZM11.3333 15.5C11.7754 15.5 12.1993 15.3244 12.5118 15.0119C12.8244 14.6993 13 14.2754 13 13.8334C13 13.3913 12.8244 12.9674 12.5118 12.6548C12.1993 12.3423 11.7754 12.1667 11.3333 12.1667C10.8913 12.1667 10.4674 12.3423 10.1548 12.6548C9.84226 12.9674 9.66666 13.3913 9.66666 13.8334C9.66666 14.2754 9.84226 14.6993 10.1548 15.0119C10.4674 15.3244 10.8913 15.5 11.3333 15.5Z" fill="#FF971A"/>
</svg>
