<svg width="18" height="16" viewBox="0 0 18 16" fill="none" xmlns="http://www.w3.org/2000/svg">
<path d="M11.1667 13.8339V13.8333V10.5C11.1667 10.1755 11.2765 9.90979 11.5102 9.67605C11.7439 9.44234 12.0091 9.33294 12.3327 9.33333H12.3333H15.6667C15.9912 9.33333 16.2569 9.44315 16.4906 9.67689C16.7243 9.91061 16.8337 10.1758 16.8333 10.4994V10.5V13.8333C16.8333 14.1579 16.7235 14.4235 16.4898 14.6573C16.2561 14.891 15.9909 15.0004 15.6673 15H15.6667H12.3333C12.0088 15 11.7431 14.8902 11.5094 14.6564C11.2757 14.4227 11.1663 14.1575 11.1667 13.8339ZM11.8333 13.8333V14.3333H12.3333H15.6667H16.1667V13.8333V10.5V10H15.6667H12.3333H11.8333V10.5V13.8333ZM1.16666 12.1678V12.1667C1.16666 12.0567 1.19843 11.9878 1.26021 11.9261C1.32194 11.8643 1.39018 11.8331 1.49881 11.8333H1.49999H7.33333C7.44326 11.8333 7.51216 11.8651 7.57394 11.9269C7.63566 11.9886 7.66692 12.0569 7.66666 12.1655V12.1667C7.66666 12.2766 7.63489 12.3455 7.57311 12.4073C7.51138 12.469 7.44313 12.5003 7.33451 12.5H7.33333H1.49999C1.39006 12.5 1.32116 12.4682 1.25938 12.4064C1.19766 12.3447 1.1664 12.2765 1.16666 12.1678ZM11.1667 5.50061V5.5V2.16667C11.1667 1.84212 11.2765 1.57646 11.5102 1.34272C11.7439 1.109 12.0091 0.999608 12.3327 1H12.3333H15.6667C15.9912 1 16.2569 1.10982 16.4906 1.34355C16.7243 1.57727 16.8337 1.84247 16.8333 2.16606V2.16667V5.5C16.8333 5.82455 16.7235 6.09021 16.4898 6.32395C16.2561 6.55767 15.9909 6.66706 15.6673 6.66667H15.6667H12.3333C12.0088 6.66667 11.7431 6.55685 11.5094 6.32311C11.2757 6.0894 11.1663 5.8242 11.1667 5.50061ZM11.8333 5.5V6H12.3333H15.6667H16.1667V5.5V2.16667V1.66667H15.6667H12.3333H11.8333V2.16667V5.5ZM1.16666 3.83451V3.83333C1.16666 3.72341 1.19843 3.65451 1.26021 3.59272C1.32193 3.531 1.39018 3.49974 1.49881 3.5H1.49999H7.33333C7.44326 3.5 7.51216 3.53177 7.57394 3.59355C7.63566 3.65528 7.66692 3.72353 7.66666 3.83216V3.83333C7.66666 3.94326 7.63489 4.01216 7.57311 4.07395C7.51138 4.13567 7.44314 4.16693 7.33451 4.16667H7.33333H1.49999C1.39006 4.16667 1.32116 4.1349 1.25938 4.07311C1.19766 4.01139 1.1664 3.94314 1.16666 3.83451Z" stroke="#767676"/>
</svg>
