<svg width="18" height="16" viewBox="0 0 18 16" fill="none" xmlns="http://www.w3.org/2000/svg">
<path d="M12.3333 15.5C11.875 15.5 11.4825 15.3367 11.1558 15.01C10.8292 14.6833 10.6661 14.2911 10.6667 13.8333V10.5C10.6667 10.0417 10.83 9.64917 11.1567 9.3225C11.4833 8.99583 11.8756 8.83278 12.3333 8.83333H15.6667C16.125 8.83333 16.5175 8.99667 16.8442 9.32333C17.1708 9.65 17.3339 10.0422 17.3333 10.5V13.8333C17.3333 14.2917 17.17 14.6842 16.8433 15.0108C16.5167 15.3375 16.1244 15.5006 15.6667 15.5H12.3333ZM0.666664 13V11.3333H8.16666V13H0.666664ZM12.3333 7.16667C11.875 7.16667 11.4825 7.00333 11.1558 6.67667C10.8292 6.35 10.6661 5.95778 10.6667 5.5V2.16667C10.6667 1.70833 10.83 1.31583 11.1567 0.989168C11.4833 0.662501 11.8756 0.499446 12.3333 0.500001H15.6667C16.125 0.500001 16.5175 0.663335 16.8442 0.990001C17.1708 1.31667 17.3339 1.70889 17.3333 2.16667V5.5C17.3333 5.95833 17.17 6.35083 16.8433 6.6775C16.5167 7.00417 16.1244 7.16722 15.6667 7.16667H12.3333ZM0.666664 4.66667V3H8.16666V4.66667H0.666664Z" fill="#FF971A"/>
</svg>
