<svg width="14" height="19" viewBox="0 0 14 19" fill="none" xmlns="http://www.w3.org/2000/svg">
<path d="M13.6667 18.3333H12V16.6666C12 16.0036 11.7366 15.3677 11.2678 14.8989C10.7989 14.43 10.163 14.1666 9.5 14.1666H4.5C3.83696 14.1666 3.20108 14.43 2.73224 14.8989C2.26339 15.3677 2 16.0036 2 16.6666V18.3333H0.333336V16.6666C0.333336 15.5616 0.772323 14.5018 1.55372 13.7204C2.33513 12.939 3.39493 12.5 4.5 12.5H9.5C10.6051 12.5 11.6649 12.939 12.4463 13.7204C13.2277 14.5018 13.6667 15.5616 13.6667 16.6666V18.3333ZM7 10.8333C6.34339 10.8333 5.69321 10.704 5.08659 10.4527C4.47996 10.2014 3.92876 9.83314 3.46447 9.36885C3.00018 8.90455 2.63188 8.35336 2.3806 7.74673C2.12933 7.1401 2 6.48992 2 5.83331C2 5.1767 2.12933 4.52652 2.3806 3.9199C2.63188 3.31327 3.00018 2.76207 3.46447 2.29778C3.92876 1.83349 4.47996 1.46519 5.08659 1.21392C5.69321 0.962642 6.34339 0.833313 7 0.833313C8.32608 0.833313 9.59785 1.3601 10.5355 2.29778C11.4732 3.23546 12 4.50723 12 5.83331C12 7.1594 11.4732 8.43116 10.5355 9.36885C9.59785 10.3065 8.32608 10.8333 7 10.8333ZM7 9.16665C7.88406 9.16665 8.7319 8.81546 9.35703 8.19034C9.98215 7.56521 10.3333 6.71737 10.3333 5.83331C10.3333 4.94926 9.98215 4.10141 9.35703 3.47629C8.7319 2.85117 7.88406 2.49998 7 2.49998C6.11595 2.49998 5.2681 2.85117 4.64298 3.47629C4.01786 4.10141 3.66667 4.94926 3.66667 5.83331C3.66667 6.71737 4.01786 7.56521 4.64298 8.19034C5.2681 8.81546 6.11595 9.16665 7 9.16665Z" fill="#767676"/>
</svg>
