<svg width="14" height="19" viewBox="0 0 14 19" fill="none" xmlns="http://www.w3.org/2000/svg">
<path d="M13.6667 18.3333H0.333336V16.6666C0.333336 15.5616 0.772323 14.5018 1.55372 13.7204C2.33513 12.939 3.39493 12.5 4.5 12.5H9.5C10.6051 12.5 11.6649 12.939 12.4463 13.7204C13.2277 14.5018 13.6667 15.5616 13.6667 16.6666V18.3333ZM7 10.8333C6.34339 10.8333 5.69321 10.704 5.08659 10.4527C4.47996 10.2014 3.92876 9.83314 3.46447 9.36885C3.00018 8.90455 2.63188 8.35336 2.3806 7.74673C2.12933 7.1401 2 6.48992 2 5.83331C2 5.1767 2.12933 4.52652 2.3806 3.9199C2.63188 3.31327 3.00018 2.76207 3.46447 2.29778C3.92876 1.83349 4.47996 1.46519 5.08659 1.21392C5.69321 0.962642 6.34339 0.833313 7 0.833313C8.32608 0.833313 9.59785 1.3601 10.5355 2.29778C11.4732 3.23546 12 4.50723 12 5.83331C12 7.1594 11.4732 8.43116 10.5355 9.36885C9.59785 10.3065 8.32608 10.8333 7 10.8333Z" fill="#FF971A"/>
</svg>
